# AST/ASF file generated using VICON BodyLanguage
# -----------------------------------------------
:version 1.10
:name VICON
:units
  mass 1.0
  length 0.45
  angle deg
:documentation
   .ast/.asf automatically generated from VICON data using
   VICON BodyBuilder and BodyLanguage model FoxedUp or BRILLIANT.MOD
:root
   order TX TY TZ RX RY RZ
   axis XYZ
   position 0 0 0  
   orientation 0 0 0 
:bonedata
  begin
     id 1 
     name lhipjoint
     direction 0.660183 -0.676772 0.325788 
     length 2.75133 
     axis 0 0 0  XYZ
  end
  begin
     id 2 
     name lfemur
     direction 0.34202 -0.939693 0  
     length 7.70317  
     axis 0 0 20  XYZ
    dof rx ry rz
    limits (-160.0 20.0)
           (-70.0 70.0)
           (-60.0 70.0)
  end
  begin
     id 3 
     name ltibia
     direction 0.342105 -0.939662 0   
     length 7.18701   
     axis 0 0 20   XYZ
    dof rx
    limits (-10.0 170.0)
  end
  begin
     id 4 
     name lfoot
     direction 0.14163 -0.389126 0.910232   
     length 2.41719   
     axis -90 7.62852e-016 20   XYZ
    dof rx rz
    limits (-45.0 90.0)
           (-70.0 20.0)
  end
  begin
     id 5 
     name ltoes
     direction 1.53533e-011 -4.21926e-011 1   
     length 1.18611   
     axis -90 7.62852e-016 20   XYZ
    dof rx
    limits (-90.0 20.0)
  end
  begin
     id 6 
     name rhipjoint
     direction -0.6658 -0.67229 0.323631   
     length 2.76968  
     axis 0 0 0  XYZ 
  end
  begin
     id 7 
     name rfemur
     direction -0.34202 -0.939693 0   
     length 7.92547   
     axis 0 0 -20   XYZ
    dof rx ry rz
    limits (-160.0 20.0)
           (-70.0 70.0)
           (-70.0 60.0)
  end
  begin
     id 8 
     name rtibia
     direction -0.342022 -0.939692 0   
     length 7.22641   
     axis 0 0 -20   XYZ
    dof rx
    limits (-10.0 170.0)
 end
 begin
     id 9 
     name rfoot
     direction -0.105675 -0.29034 0.951071   
     length 2.48149  
     axis -90 -7.62852e-016 -20   XYZ
    dof rx rz
    limits (-45.0 90.0)
           (-20.0 70.0)
  end
  begin
     id 10 
     name rtoes
     direction -1.5349e-011 -4.21859e-011 1   
     length 1.23343   
     axis -90 -7.62852e-016 -20   XYZ
    dof rx
    limits (-90.0 20.0)
  end
  begin
     id 11 
     name lowerback
     direction 0.0104173 0.993624 -0.112266   
     length 2.00527   
     axis 0 0 0   XYZ
    dof rx ry rz
    limits (-20.0 45.0)
           (-30.0 30.0)
           (-30.0 30.0)
  end
  begin
     id 12 
     name upperback
     direction 0.00733149 0.999856 -0.0152913   
     length 2.01385   
     axis 0 0 0   XYZ
    dof rx ry rz
    limits (-20.0 45.0)
           (-30.0 30.0)
           (-30.0 30.0)
  end
  begin
     id 13 
     name thorax
     direction 0.0026304 0.999318 0.036841   
     length 2.03734   
     axis 0 0 0   XYZ
    dof rx ry rz
    limits (-20.0 45.0)
           (-30.0 30.0)
           (-30.0 30.0)
  end
  begin
     id 14 
     name lowerneck
     direction 0.0293154 0.998757 0.0403082   
     length 1.65303   
     axis 0 0 0   XYZ
    dof rx ry rz
    limits (-20.0 45.0)
           (-30.0 30.0)
           (-30.0 30.0)
  end
  begin
     id 15 
     name upperneck
     direction -0.0376619 0.998184 -0.0470083   
     length 1.60926   
     axis 0 0 0   XYZ
    dof rx ry rz
    limits (-20.0 45.0)
           (-30.0 30.0)
           (-30.0 30.0)
  end
  begin
     id 16
     name head
     direction -0.0170133 0.999635 -0.0209778  
     length 1.73625  
     axis 0 0 0   XYZ
    dof rx ry rz
    limits (-20.0 45.0)
           (-30.0 30.0)
           (-30.0 30.0)
  end
  begin
     id 17 
     name lclavicle
     direction 0.919857 0.39181 -0.0186333  
     length 3.75313  
     axis 0 0 0   XYZ
    dof ry rz
    limits (-20.0 10.0)
           (0.0 20.0)
  end
  begin
     id 18 
     name lhumerus
     direction 1 -4.48988e-011 1.44029e-027   
     length 5.49313   
     axis 180 -30 -90   XYZ
    dof rx ry rz
    limits (-60.0 90.0)
           (-90.0 90.0)
           (-90.0 90.0)
  end
  begin
     id 19
     name lradius
     direction 1 -4.48924e-011 7.46281e-027   
     length 3.29037   
     axis 180 -30 -90   XYZ
    dof rx
    limits (-10.0 170.0)
  end
  begin
     id 20
     name lwrist
     direction 1 -4.48955e-011 2.19879e-026   
     length 1.64519   
     axis -1.34358e-014 90 90   XYZ
    dof ry
    limits (-180.0 0.0)
 end
  begin
     id 21 
     name lhand
     direction 1 -4.48978e-011 4.39747e-026   
     length 0.729656   
     axis -2.80598e-014 90 90   XYZ
    dof rx rz
    limits (-90.0 90.0)
           (-45.0 45.0)
  end
  begin
     id 22 
     name lfingers
     direction 1 -4.49071e-011 8.79411e-026   
     length 0.588268   
     axis -5.61193e-014 90 90   XYZ
    dof rx
    limits (0.0 90.0)
  end
  begin
     id 23
     name lthumb
     direction 0.707107 -6.34817e-011 0.707107   
     length 0.844638   
     axis -90 45 -9.86923e-015   XYZ
    dof rx rz
    limits (-45.0 45.0)
           (-45.0 45.0)
  end
  begin
     id 24 
     name rclavicle
     direction -0.919898 0.388279 0.0550233   
     length 3.7171  
     axis 0 0 0   XYZ 
    dof ry rz
    limits (-10.0 20.0)
           (-20.0 0.0)
  end
  begin
     id 25 
     name rhumerus
     direction -1 -4.48968e-011 9.98372e-028  
     length 5.23684   
     axis 180 30 90   XYZ
    dof rx ry rz
    limits (-90.0 60.0)
           (-90.0 90.0)
           (-90.0 90.0)
  end
  begin
     id 26 
     name rradius
     direction -1 -4.48956e-011 1.01023e-026   
     length 3.38251   
     axis 180 30 90   XYZ
    dof rx
    limits (-10.0 170.0)
  end
  begin
     id 27 
     name rwrist
     direction -1 -4.4892e-011 2.19886e-026   
     length 1.69126   
     axis -1.34358e-014 -90 -90   XYZ
    dof ry
    limits (-180.0 0.0)
  end
  begin
     id 28
     name rhand
     direction -1 -4.49024e-011 4.39727e-026   
     length 0.691454   
     axis -2.80598e-014 -90 -90   XYZ
    dof rx rz
    limits (-90.0 90.0)
           (-45.0 45.0)
  end
  begin
     id 29
     name rfingers
     direction -1 -4.49097e-011 8.79388e-026   
     length 0.557468   
     axis -5.61193e-014 -90 -90   XYZ
    dof rx
    limits (0.0 90.0)
  end
  begin
     id 30
     name rthumb
     direction -0.707107 -6.34938e-011 0.707107   
     length 0.800416   
     axis -90 -45 9.86923e-015   XYZ
    dof rx rz
    limits (-45.0 45.0)
           (-45.0 45.0)
  end
:hierarchy
  begin
    root lhipjoint rhipjoint lowerback
    lhipjoint lfemur
    lfemur ltibia
    ltibia lfoot
    lfoot ltoes
    rhipjoint rfemur
    rfemur rtibia
    rtibia rfoot
    rfoot rtoes
    lowerback upperback
    upperback thorax
    thorax lowerneck lclavicle rclavicle
    lowerneck upperneck
    upperneck head
    lclavicle lhumerus
    lhumerus lradius
    lradius lwrist
    lwrist lhand lthumb
    lhand lfingers
    rclavicle rhumerus
    rhumerus rradius
    rradius rwrist
    rwrist rhand rthumb
    rhand rfingers
  end

#!OML:ASF H:\BabyWalks\Project 1\Capture day 1\Session 1\baby.ASF
:FULLY-SPECIFIED
:DEGREES
79
root -37.185 17.1821 -3.29339 -25.8844 77.4808 -29.3371
lowerback 16.6922 0.644049 -7.5015
upperback 6.69976 -0.0206012 -2.10209
thorax -2.15096 0.0602854 2.01545
lowerneck -0.362175 2.56677 0.330271
upperneck -15.9918 4.77282 5.95753
head -4.87411 2.183 1.57579
rclavicle -7.15625e-015 3.18055e-015
rhumerus -46.7997 11.4671 -89.4909
rradius 44.9903
rwrist -3.38342
rhand -6.81436 -14.3761
rfingers 7.12502
rthumb 19.0494 -43.4633
lclavicle -7.15625e-015 3.18055e-015
lhumerus -41.6509 2.40148 73.0633
lradius 53.0262
lwrist 3.4939
lhand -2.03564 10.3121
lfingers 7.12502
lthumb 23.6392 38.8788
rfemur -12.164 11.4285 20.8751
rtibia 56.2722
rfoot -15.2867 8.74813
rtoes -20.7064
lfemur -15.1908 -7.35768 -13.1756
ltibia 42.2566
lfoot -28.2395 -13.2652
ltoes 7.74522
80
root -37.1315 17.1923 -3.28293 -26.1001 77.5388 -29.472
lowerback 16.7473 0.619343 -7.66312
upperback 6.73492 -0.0781652 -2.18531
thorax -2.13436 0.0316446 2.02822
lowerneck -0.259971 2.56038 0.360545
upperneck -16.0507 4.79898 6.12445
head -4.91366 2.18263 1.61927
rclavicle -1.35174e-014 4.77083e-015
rhumerus -46.7546 11.581 -89.6353
rradius 45.2329
rwrist -3.69563
rhand -7.21219 -14.3552
rfingers 7.12502
rthumb 18.6667 -43.4795
lclavicle -1.35174e-014 4.77083e-015
lhumerus -41.5202 2.2507 72.8744
lradius 53.1444
lwrist 3.55313
lhand -2.11261 10.3089
lfingers 7.12502
lthumb 23.5654 38.8851
rfemur -12.7065 11.8444 20.76
rtibia 56.8508
rfoot -15.5137 9.30298
rtoes -21.1523
lfemur -14.6785 -7.59747 -13.2724
ltibia 41.8339
lfoot -28.3238 -12.8927
ltoes 7.36554
81
root -37.0774 17.2037 -3.27198 -26.3533 77.583 -29.6505
lowerback 16.8022 0.597303 -7.79863
upperback 6.77007 -0.128237 -2.25654
thorax -2.11853 0.00677049 2.03765
lowerneck -0.155613 2.55174 0.390218
upperneck -16.1157 4.81837 6.26295
head -4.95466 2.18004 1.65435
rclavicle -2.62396e-014 -7.95139e-015
rhumerus -46.7122 11.6989 -89.762
rradius 45.44
rwrist -3.87695
rhand -7.61273 -14.3005
rfingers 7.12502
rthumb 18.2814 -43.4614
lclavicle -2.62396e-014 -7.95139e-015
lhumerus -41.3954 2.09598 72.7064
lradius 53.2632
lwrist 3.6037
lhand -2.18937 10.3043
lfingers 7.12502
lthumb 23.4917 38.8899
rfemur -13.2426 12.3138 20.6544
rtibia 57.3005
rfoot -15.7435 9.79687
rtoes -21.6822
lfemur -14.1537 -7.83915 -13.3531
ltibia 41.3887
lfoot -28.4208 -12.5105
ltoes 6.99525
82
root -37.0226 17.2166 -3.26055 -26.6309 77.6161 -29.86
lowerback 16.8584 0.578127 -7.91151
upperback 6.80529 -0.171214 -2.31614
thorax -2.10424 -0.0145338 2.04542
lowerneck -0.0578736 2.54362 0.42213
upperneck -16.1827 4.83397 6.3698
head -4.99432 2.17708 1.67957
rclavicle 3.97569e-015 2.06736e-014
rhumerus -46.673 11.8163 -89.8702
rradius 45.6148
rwrist -3.92808
rhand -8.01062 -14.2131
rfingers 7.12502
rthumb 17.8986 -43.4095
lclavicle 3.97569e-015 2.06736e-014
lhumerus -41.2761 1.93934 72.5594
lradius 53.3834
lwrist 3.6488
lhand -2.28125 10.3454
lfingers 7.12502
lthumb 23.4036 38.9423
rfemur -13.7753 12.8336 20.552
rtibia 57.6211
rfoot -15.9586 10.2427
rtoes -22.13
lfemur -13.6131 -8.07907 -13.4205
ltibia 40.9089
lfoot -28.4892 -12.1384
ltoes 6.67931
83
root -36.967 17.2315 -3.24875 -26.9145 77.642 -30.0848
lowerback 16.9141 0.560734 -8.00683
upperback 6.84006 -0.209162 -2.36434
thorax -2.09079 -0.0333831 2.0545
lowerneck 0.0257045 2.53888 0.458074
upperneck -16.2462 4.84895 6.4442
head -5.02974 2.17559 1.69436
rclavicle 1.51076e-014 1.90833e-014
rhumerus -46.6354 11.9295 -89.9555
rradius 45.7579
rwrist -3.86372
rhand -8.38888 -14.0905
rfingers 7.12502
rthumb 17.5346 -43.3198
lclavicle 1.51076e-014 1.90833e-014
lhumerus -41.1658 1.7819 72.4347
lradius 53.5113
lwrist 3.69674
lhand -2.37395 10.3918
lfingers 7.12502
lthumb 23.3147 39
rfemur -14.311 13.3992 20.4425
rtibia 57.8134
rfoot -16.1518 10.6508
rtoes -22.4658
lfemur -13.057 -8.31339 -13.4787
ltibia 40.3897
lfoot -28.5125 -11.7865
ltoes 6.42335
84
root -36.9102 17.2493 -3.2367 -27.1941 77.6629 -30.315
lowerback 16.9692 0.545442 -8.08784
upperback 6.87525 -0.242019 -2.40116
thorax -2.07718 -0.0498203 2.0667
lowerneck 0.0908215 2.53696 0.499245
upperneck -16.3034 4.86246 6.48778
head -5.05924 2.17522 1.69913
rclavicle 0 -3.18055e-015
rhumerus -46.603 12.0392 -90.0201
rradius 45.88
rwrist -3.70424
rhand -8.74529 -13.9562
rfingers 7.12502
rthumb 17.1916 -43.2157
lclavicle 0 -3.18055e-015
lhumerus -41.0624 1.62511 72.3329
lradius 53.6467
lwrist 3.74848
lhand -2.46673 10.438
lfingers 7.12502
lthumb 23.2257 39.0575
rfemur -14.8577 14.01 20.3194
rtibia 57.8767
rfoot -16.2725 11.0641
rtoes -22.4949
lfemur -12.4854 -8.53594 -13.53
ltibia 39.8281
lfoot -28.5047 -11.4681
ltoes 6.29923
85
root -36.8528 17.2679 -3.22445 -27.4432 77.6823 -30.5237
lowerback 17.0246 0.531082 -8.1598
upperback 6.91101 -0.2722 -2.42989
thorax -2.06343 -0.0650241 2.08192
lowerneck 0.139113 2.54018 0.538669
upperneck -16.3587 4.87983 6.51325
head -5.08506 2.1783 1.69867
rclavicle -7.95139e-015 3.18055e-015
rhumerus -46.5725 12.1427 -90.0655
rradius 45.9777
rwrist -3.47388
rhand -9.07054 -13.8185
rfingers 7.12502
rthumb 16.8785 -43.105
lclavicle -7.95139e-015 3.18055e-015
lhumerus -40.9692 1.46876 72.2505
lradius 53.7956
lwrist 3.8096
lhand -2.55125 10.4821
lfingers 7.12502
lthumb 23.1446 39.1118
rfemur -15.3984 14.6428 20.1752
rtibia 57.8098
rfoot -16.3731 11.4514
rtoes -22.4393
lfemur -11.9057 -8.73946 -13.5802
ltibia 39.2299
lfoot -28.4653 -11.1897
ltoes 6.25356
86
root -36.7948 17.287 -3.212 -27.6244 77.7012 -30.6765
lowerback 17.0803 0.517321 -8.22809
upperback 6.94317 -0.301563 -2.45419
thorax -2.05378 -0.079764 2.09964
lowerneck 0.170346 2.54861 0.580908
upperneck -16.4096 4.90104 6.52043
head -5.10629 2.18462 1.69218
rclavicle 1.27222e-014 -2.22639e-014
rhumerus -46.5467 12.2372 -90.0943
rradius 46.0509
rwrist -3.19257
rhand -9.34563 -13.6828
rfingers 7.12502
rthumb 16.6137 -42.9917
lclavicle 1.27222e-014 -2.22639e-014
lhumerus -40.8917 1.3121 72.1828
lradius 53.9597
lwrist 3.87914
lhand -2.61447 10.4978
lfingers 7.12502
lthumb 23.0839 39.1351
rfemur -15.9359 15.2885 20.0014
rtibia 57.6142
rfoot -16.4859 11.7905
rtoes -22.4161
lfemur -11.3239 -8.91483 -13.6357
ltibia 38.599
lfoot -28.4014 -10.9502
ltoes 6.26792
87
root -36.7361 17.3063 -3.19933 -27.7415 77.7259 -30.7758
lowerback 17.1328 0.502907 -8.29627
upperback 6.9749 -0.331496 -2.47362
thorax -2.04274 -0.0949763 2.12258
lowerneck 0.190586 2.56161 0.621254
upperneck -16.4621 4.92686 6.51692
head -5.12608 2.19419 1.68262
rclavicle -1.74931e-014 -2.54444e-014
rhumerus -46.5235 12.3213 -90.1049
rradius 46.1001
rwrist -2.88683
rhand -9.56817 -13.544
rfingers 7.12502
rthumb 16.3995 -42.8708
lclavicle -1.74931e-014 -2.54444e-014
lhumerus -40.826 1.15164 72.1333
lradius 54.1377
lwrist 3.95812
lhand -2.67377 10.5122
lfingers 7.12502
lthumb 23.027 39.1566
rfemur -16.4644 15.9323 19.7958
rtibia 57.2917
rfoot -16.6189 12.0788
rtoes -22.4429
lfemur -10.7434 -9.05985 -13.699
ltibia 37.9456
lfoot -28.3229 -10.7529
ltoes 6.3299
88
root -36.6766 17.3257 -3.18642 -27.7779 77.7553 -30.8028
lowerback 17.1905 0.485733 -8.36222
upperback 7.0018 -0.365893 -2.49352
thorax -2.03911 -0.112086 2.14461
lowerneck 0.200727 2.57794 0.659494
upperneck -16.5115 4.95601 6.50885
head -5.14326 2.20609 1.67201
rclavicle 2.22639e-014 7.95139e-015
rhumerus -46.5078 12.395 -90.1053
rradius 46.1244
rwrist -2.57431
rhand -9.73072 -13.4178
rfingers 7.12502
rthumb 16.2429 -42.7573
lclavicle 2.22639e-014 7.95139e-015
lhumerus -40.7808 0.987066 72.0921
lradius 54.3311
lwrist 4.04024
lhand -2.70009 10.477
lfingers 7.12502
lthumb 23.0018 39.1246
rfemur -16.9858 16.5711 19.5558
rtibia 56.8476
rfoot -16.7781 12.3104
rtoes -22.559
lfemur -10.1632 -9.16881 -13.7734
ltibia 37.271
lfoot -28.2336 -10.6003
ltoes 6.44259
89
root -36.6163 17.3449 -3.17308 -27.7672 77.7932 -30.7906
lowerback 17.2508 0.463848 -8.4263
upperback 7.02557 -0.406845 -2.50887
thorax -2.03957 -0.132371 2.17167
lowerneck 0.211481 2.59832 0.68696
upperneck -16.5672 4.99068 6.50019
head -5.16283 2.22121 1.66269
rclavicle 7.15625e-015 -1.27222e-014
rhumerus -46.4973 12.456 -90.0874
rradius 46.1182
rwrist -2.27288
rhand -9.82583 -13.2801
rfingers 7.12502
rthumb 16.1514 -42.6272
lclavicle 7.15625e-015 -1.27222e-014
lhumerus -40.7588 0.823456 72.0636
lradius 54.5437
lwrist 4.12318
lhand -2.70952 10.4516
lfingers 7.12502
lthumb 22.9927 39.1003
rfemur -17.4936 17.1908 19.2905
rtibia 56.2858
rfoot -16.9727 12.4814
rtoes -22.8457
lfemur -9.58329 -9.24449 -13.8524
ltibia 36.5759
lfoot -28.1439 -10.49
ltoes 6.57213
90
root -36.5552 17.3642 -3.15918 -27.7417 77.8442 -30.7687
lowerback 17.3214 0.434108 -8.48405
upperback 7.04557 -0.458575 -2.52031
thorax -2.04841 -0.15763 2.20138
lowerneck 0.215591 2.62117 0.709979
upperneck -16.62 5.02799 6.49082
head -5.18054 2.23812 1.65388
rclavicle 1.66979e-014 -1.59028e-015
rhumerus -46.493 12.5025 -90.0553
rradius 46.086
rwrist -1.99904
rhand -9.85357 -13.1506
rfingers 7.12502
rthumb 16.1247 -42.4998
lclavicle 1.66979e-014 -1.59028e-015
lhumerus -40.759 0.657733 72.0452
lradius 54.7715
lwrist 4.20913
lhand -2.70341 10.4214
lfingers 7.12502
lthumb 22.9986 39.0693
rfemur -17.989 17.7871 19.0055
rtibia 55.612
rfoot -17.1797 12.6142
rtoes -23.1847
lfemur -9.0017 -9.29137 -13.9317
ltibia 35.8629
lfoot -28.0583 -10.4241
ltoes 6.71339
91
root -36.4928 17.3838 -3.14476 -27.7333 77.9088 -30.7685
lowerback 17.4018 0.394985 -8.53027
upperback 7.06155 -0.522247 -2.52527
thorax -2.06568 -0.188422 2.23386
lowerneck 0.215824 2.64636 0.726656
upperneck -16.6694 5.06799 6.48314
head -5.19676 2.25675 1.64658
rclavicle -2.22639e-014 2.54444e-014
rhumerus -46.4989 12.5314 -90.0069
rradius 46.03
rwrist -1.76439
rhand -9.82158 -13.026
rfingers 7.12502
rthumb 16.1555 -42.3727
lclavicle -2.22639e-014 2.54444e-014
lhumerus -40.7856 0.492453 72.0373
lradius 55.0172
lwrist 4.29352
lhand -2.68937 10.4304
lfingers 7.12502
lthumb 23.0121 39.0767
rfemur -18.4717 18.3588 18.7081
rtibia 54.8303
rfoot -17.3795 12.7359
rtoes -23.4919
lfemur -8.41668 -9.31749 -14.0057
ltibia 35.1331
lfoot -27.9923 -10.3931
ltoes 6.85436
